<svg width="16" height="16" viewBox="0 0 16 16" fill="none" xmlns="http://www.w3.org/2000/svg">
<path d="M13.4064 11.66L9.99977 5.82001V2.66668H10.6664C10.8432 2.66668 11.0128 2.59644 11.1378 2.47141C11.2629 2.34639 11.3331 2.17682 11.3331 2.00001C11.3331 1.8232 11.2629 1.65363 11.1378 1.52861C11.0128 1.40358 10.8432 1.33334 10.6664 1.33334H5.3331C5.15629 1.33334 4.98672 1.40358 4.8617 1.52861C4.73668 1.65363 4.66644 1.8232 4.66644 2.00001C4.66644 2.17682 4.73668 2.34639 4.8617 2.47141C4.98672 2.59644 5.15629 2.66668 5.3331 2.66668H5.99977V5.82001L2.5931 11.66C2.41613 11.9638 2.32238 12.3089 2.3213 12.6605C2.32022 13.0121 2.41184 13.3578 2.58694 13.6627C2.76203 13.9676 3.01441 14.2209 3.31864 14.3972C3.62286 14.5735 3.96817 14.6664 4.31977 14.6667H11.6531C12.0047 14.6664 12.35 14.5735 12.6542 14.3972C12.9585 14.2209 13.2108 13.9676 13.3859 13.6627C13.561 13.3578 13.6527 13.0121 13.6516 12.6605C13.6505 12.3089 13.5567 11.9638 13.3798 11.66H13.4064ZM7.23977 6.32668C7.29857 6.22767 7.33073 6.11513 7.3331 6.00001V2.66668H8.66644V6.00001C8.66766 6.1174 8.69985 6.23239 8.75977 6.33334L9.3331 7.33334H6.66644L7.23977 6.32668ZM12.2531 12.9933C12.1949 13.0941 12.1114 13.1779 12.0108 13.2364C11.9102 13.2948 11.7961 13.326 11.6798 13.3267H4.34644C4.2301 13.326 4.11596 13.2948 4.01538 13.2364C3.9148 13.1779 3.83127 13.0941 3.7731 12.9933C3.71459 12.892 3.68379 12.777 3.68379 12.66C3.68379 12.543 3.71459 12.428 3.7731 12.3267L5.88644 8.66668H10.1198L12.2531 12.3333C12.3116 12.4347 12.3424 12.5497 12.3424 12.6667C12.3424 12.7837 12.3116 12.8987 12.2531 13V12.9933ZM6.66644 10C6.53458 10 6.40569 10.0391 6.29606 10.1124C6.18643 10.1856 6.10098 10.2897 6.05052 10.4116C6.00006 10.5334 5.98686 10.6674 6.01258 10.7967C6.0383 10.9261 6.1018 11.0448 6.19503 11.1381C6.28827 11.2313 6.40706 11.2948 6.53638 11.3205C6.6657 11.3463 6.79974 11.3331 6.92156 11.2826C7.04338 11.2321 7.1475 11.1467 7.22075 11.0371C7.29401 10.9274 7.3331 10.7985 7.3331 10.6667C7.3331 10.4899 7.26287 10.3203 7.13784 10.1953C7.01282 10.0702 6.84325 10 6.66644 10ZM9.3331 10.6667C9.20125 10.6667 9.07236 10.7058 8.96272 10.779C8.85309 10.8523 8.76764 10.9564 8.71718 11.0782C8.66673 11.2 8.65352 11.3341 8.67925 11.4634C8.70497 11.5927 8.76847 11.7115 8.8617 11.8047C8.95494 11.898 9.07372 11.9615 9.20304 11.9872C9.33237 12.0129 9.46641 11.9997 9.58823 11.9493C9.71004 11.8988 9.81416 11.8134 9.88742 11.7037C9.96067 11.5941 9.99977 11.4652 9.99977 11.3333C9.99977 11.1565 9.92953 10.987 9.80451 10.8619C9.67948 10.7369 9.50992 10.6667 9.3331 10.6667Z" fill="#5182EF"/>
</svg>
