<svg width="35" height="35" viewBox="0 0 35 35" fill="none" xmlns="http://www.w3.org/2000/svg">
<path d="M17.5194 26.0093C17.8674 25.5999 18.219 25.198 18.5557 24.7833C18.7439 24.5516 18.9651 24.4384 19.2666 24.4579C19.9489 24.5029 20.6515 24.4474 21.3091 24.5951C22.248 24.8065 22.9311 25.6756 22.9558 26.6354C22.9985 28.3203 22.9828 30.0067 22.9738 31.6924C22.9716 32.1288 22.7593 32.2803 22.2397 32.2818C20.779 32.2855 19.3176 32.2833 17.8569 32.2833C16.196 32.2833 14.5351 32.284 12.8741 32.2833C12.1445 32.2825 12.0223 32.1603 12.0223 31.4367C12.0216 29.9632 12.0193 28.4898 12.0231 27.0163C12.0268 25.4837 12.9934 24.5883 14.5268 24.4879C15.6133 24.4166 16.4727 24.6341 17.0785 25.5856C17.1805 25.7469 17.3597 25.8593 17.5194 26.0093Z" fill="url(#paint0_linear_1_429)"/>
<path d="M12.398 10.8624C12.4017 8.15398 14.5463 6.00417 17.2465 6.00192C19.9572 5.99967 22.1482 8.18097 22.143 10.8767C22.1385 13.5206 19.9099 15.7409 17.2562 15.7469C14.6123 15.7537 12.3942 13.5229 12.398 10.8624ZM17.6806 10.3503C17.6806 9.83738 17.6836 9.35373 17.6799 8.87083C17.6776 8.58514 17.5982 8.34444 17.2622 8.30695C16.966 8.27395 16.7538 8.49516 16.7486 8.85358C16.7411 9.34698 16.7463 9.84038 16.7463 10.3518C16.1929 10.3518 15.6951 10.3473 15.1972 10.3533C14.8897 10.357 14.6798 10.5377 14.667 10.8264C14.6543 11.1144 14.8755 11.2591 15.1597 11.2793C15.2714 11.2876 15.3839 11.2868 15.4963 11.2868C15.9305 11.2876 16.3647 11.2868 16.8341 11.2868C16.8341 11.7885 16.8303 12.2474 16.8356 12.707C16.8401 13.1067 17.026 13.3482 17.314 13.3452C17.6064 13.3422 17.7796 13.1105 17.7834 12.7018C17.7879 12.2429 17.7841 11.784 17.7841 11.2853C18.2948 11.2853 18.7672 11.2928 19.2388 11.2831C19.6295 11.2756 19.8364 11.0971 19.8267 10.8062C19.8169 10.5152 19.6055 10.3533 19.2193 10.3503C18.7207 10.348 18.2235 10.3503 17.6806 10.3503Z" fill="url(#paint1_linear_1_429)"/>
<path d="M24.2448 6.61306C24.2598 4.42652 25.9837 2.70637 28.1515 2.71612C30.2968 2.72587 32.0349 4.47151 32.0282 6.61007C32.0214 8.75087 30.2683 10.501 28.135 10.4973C25.9957 10.4943 24.2305 8.73213 24.2448 6.61306ZM27.6836 6.09192C27.6071 6.11442 27.5846 6.12717 27.5614 6.12791C27.3117 6.13316 27.0627 6.13541 26.813 6.14141C26.4096 6.15116 26.1974 6.30638 26.2244 6.60107C26.2559 6.949 26.5041 7.03973 26.81 7.03748C27.0912 7.03598 27.3731 7.03748 27.6341 7.03748C27.6611 7.11771 27.6746 7.14021 27.6753 7.16345C27.6791 7.41315 27.6881 7.66285 27.6806 7.9118C27.6716 8.20873 27.7488 8.44119 28.0892 8.46518C28.3727 8.48543 28.5444 8.27397 28.5534 7.9103C28.5601 7.62835 28.5549 7.34641 28.5549 7.03448C28.9208 7.03448 29.232 7.04498 29.5417 7.03148C29.8101 7.01948 30.0058 6.88001 30.0051 6.59507C30.0043 6.29963 29.8266 6.14216 29.5252 6.14141C29.2163 6.14066 28.9073 6.14141 28.5541 6.14141C28.5541 5.78149 28.5616 5.46055 28.5519 5.13962C28.5429 4.85618 28.3607 4.68746 28.0997 4.68521C27.8268 4.68296 27.6761 4.85993 27.6828 5.15162C27.6888 5.4613 27.6836 5.77174 27.6836 6.09192Z" fill="url(#paint2_linear_1_429)"/>
<path d="M6.40148 2.71668C8.54978 2.72268 10.2857 4.46157 10.2827 6.60462C10.2797 8.74468 8.53104 10.4956 6.39623 10.4978C4.24117 10.4993 2.49104 8.74018 2.50003 6.58063C2.50903 4.43382 4.24867 2.71143 6.40148 2.71668ZM5.96207 6.13897C5.64263 6.13897 5.37119 6.13972 5.09975 6.13897C4.80731 6.13747 4.53286 6.16372 4.51787 6.55064C4.50512 6.87307 4.70308 7.03204 5.12524 7.03803C5.39519 7.04178 5.66438 7.03878 5.96207 7.03878C5.96207 7.38671 5.95232 7.6844 5.96507 7.98134C5.97707 8.26478 6.11504 8.47249 6.42097 8.46274C6.71641 8.45374 6.86413 8.26853 6.86113 7.96859C6.85888 7.6724 6.86038 7.37621 6.86038 7.11302C6.91137 7.07403 6.92112 7.06053 6.93087 7.06053C7.20456 7.05228 7.47825 7.04628 7.75195 7.03878C8.04439 7.03054 8.27234 6.93381 8.29184 6.59938C8.30908 6.30169 8.12087 6.14722 7.7452 6.14122C7.45201 6.13597 7.15882 6.14047 6.84838 6.14047C6.84838 5.78054 6.84689 5.48211 6.84838 5.18292C6.84988 4.88298 6.69542 4.69327 6.40673 4.68652C6.10304 4.67902 5.97407 4.90023 5.96507 5.18217C5.95457 5.47836 5.96207 5.7768 5.96207 6.13897Z" fill="url(#paint3_linear_1_429)"/>
<path d="M27.1062 22.586C27.4766 22.1533 27.8013 21.7394 28.168 21.366C28.3074 21.2243 28.5391 21.1058 28.7341 21.0983C29.3565 21.072 29.9856 21.0615 30.605 21.1208C31.6712 21.222 32.4571 22.0423 32.4796 23.1146C32.5141 24.813 32.4961 26.5122 32.4886 28.2113C32.4871 28.626 32.2479 28.8082 31.7545 28.8089C29.8679 28.8112 27.982 28.8089 26.0954 28.8089C25.5585 28.8089 25.0209 28.8149 24.484 28.8074C24.0176 28.8014 23.8241 28.614 23.8196 28.1408C23.8106 27.1165 23.8121 26.0923 23.8189 25.068C23.8219 24.6578 24.0446 24.4216 24.3903 24.4238C24.7359 24.4268 24.9346 24.654 24.9384 25.0845C24.9451 25.9318 24.9406 26.7791 24.9406 27.6572C26.3646 27.6572 27.7556 27.6572 29.208 27.6572C29.208 27.1938 29.208 26.7244 29.208 26.2557C29.208 25.8935 29.1975 25.5306 29.2088 25.1692C29.2208 24.7965 29.457 24.5656 29.7906 24.5746C30.1123 24.5828 30.3208 24.7988 30.326 25.1699C30.3365 25.8568 30.3298 26.5437 30.3305 27.2313C30.3305 27.3662 30.3305 27.5005 30.3305 27.6594C30.6597 27.6594 30.9536 27.6594 31.2971 27.6594C31.3023 27.5507 31.3136 27.4322 31.3143 27.3137C31.3158 26.027 31.3181 24.7403 31.3143 23.4535C31.3121 22.5852 30.9761 22.3258 30.1138 22.2433C29.2013 22.1556 28.5286 22.409 28.0457 23.1956C27.904 23.4266 27.6948 23.6178 27.5044 23.815C27.2284 24.1022 26.8632 24.0947 26.5918 23.8007C26.1854 23.3606 25.7872 22.9122 25.3778 22.4743C25.2976 22.388 25.1866 22.2763 25.0869 22.2733C24.5755 22.2568 24.0618 22.25 23.5519 22.2845C23.2047 22.3078 22.8913 22.67 22.8186 23.0449C22.7998 23.1424 22.7983 23.2443 22.7758 23.3411C22.7016 23.6538 22.4954 23.8112 22.179 23.7902C21.8513 23.7677 21.7006 23.5615 21.6773 23.2443C21.6031 22.2455 22.4954 21.2153 23.5272 21.156C24.175 21.1185 24.8267 21.12 25.4745 21.15C25.6695 21.159 25.8959 21.285 26.0414 21.426C26.4058 21.7806 26.7328 22.1743 27.1062 22.586Z" fill="url(#paint4_linear_1_429)"/>
<path d="M7.93341 22.5872C8.32333 22.1546 8.67426 21.7302 9.06567 21.3477C9.20815 21.209 9.44585 21.104 9.64381 21.098C10.2789 21.077 10.92 21.068 11.5514 21.131C12.5457 21.23 13.2985 22.0691 13.3638 23.0709C13.3878 23.4376 13.1928 23.7007 12.8629 23.7465C12.5397 23.7915 12.3035 23.5815 12.245 23.1961C12.1385 22.4965 11.8124 22.279 11.121 22.1958C10.1964 22.0848 9.50808 22.3563 9.00344 23.1406C8.85722 23.3686 8.64051 23.5523 8.45455 23.754C8.14337 24.0907 7.81118 24.0877 7.49925 23.739C7.10783 23.3018 6.73141 22.8504 6.32649 22.4253C6.22151 22.315 6.04155 22.2303 5.89008 22.2198C5.49266 22.1921 5.09075 22.2003 4.69183 22.2146C4.17444 22.2333 3.74553 22.573 3.73428 23.0859C3.70203 24.5931 3.72303 26.1018 3.72303 27.6344C4.06496 27.6344 4.38214 27.6344 4.74732 27.6344C4.74732 26.9318 4.74732 26.2375 4.74732 25.5424C4.74732 25.4051 4.74357 25.2672 4.74807 25.13C4.76007 24.7558 4.97902 24.5173 5.30895 24.5151C5.63588 24.5128 5.86309 24.749 5.86909 25.1315C5.87883 25.7936 5.87209 26.4557 5.87209 27.117C5.87209 27.279 5.87209 27.4402 5.87209 27.6329C7.27055 27.6329 8.64876 27.6329 10.0855 27.6329C10.0855 27.1613 10.0855 26.6919 10.0855 26.2225C10.0855 25.8228 10.078 25.4231 10.0855 25.0235C10.093 24.6261 10.3247 24.3734 10.6621 24.3771C10.98 24.3809 11.2035 24.6261 11.2057 25.01C11.2125 26.0463 11.2125 27.0833 11.2065 28.1196C11.2042 28.5672 10.995 28.7742 10.5301 28.7809C9.80577 28.7907 9.08142 28.7839 8.35707 28.7839C6.69617 28.7839 5.03451 28.7847 3.3736 28.7832C2.71524 28.7824 2.55102 28.6205 2.55027 27.9689C2.54877 26.4077 2.54877 24.8465 2.55027 23.2846C2.55102 22.0151 3.3796 21.143 4.65959 21.0898C5.23322 21.0658 5.8106 21.059 6.38198 21.098C6.57694 21.1115 6.80114 21.251 6.94136 21.3995C7.28404 21.7631 7.58473 22.1643 7.93341 22.5872Z" fill="url(#paint5_linear_1_429)"/>
<path d="M30.4288 16.7735C30.4273 18.6211 28.9313 20.1073 27.0822 20.0983C25.2518 20.0893 23.7806 18.6046 23.7821 16.769C23.7836 14.9192 25.2833 13.4247 27.1242 13.439C28.9516 13.4517 30.4303 14.9446 30.4288 16.7735Z" fill="url(#paint6_linear_1_429)"/>
<path d="M7.91916 20.0983C6.09029 20.09 4.6056 18.6009 4.6041 16.7742C4.6026 14.9371 6.11803 13.4277 7.9514 13.4389C9.79077 13.4502 11.2837 14.9679 11.2657 16.8065C11.2477 18.6323 9.74953 20.1058 7.91916 20.0983Z" fill="url(#paint7_linear_1_429)"/>
<path d="M20.8697 20.3081C20.8615 22.1595 19.3581 23.6225 17.4722 23.6135C15.6988 23.6052 14.2059 22.08 14.2096 20.2812C14.2134 18.42 15.7273 16.9503 17.6304 16.9608C19.4 16.9691 20.878 18.4973 20.8697 20.3081Z" fill="url(#paint8_linear_1_429)"/>
<defs>
<linearGradient id="paint0_linear_1_429" x1="12.021" y1="24.3252" x2="19.4252" y2="34.6947" gradientUnits="userSpaceOnUse">
<stop stop-color="#9BB7F6"/>
<stop offset="1" stop-color="#2563EB"/>
</linearGradient>
<linearGradient id="paint1_linear_1_429" x1="12.398" y1="5.83951" x2="22.143" y2="15.5845" gradientUnits="userSpaceOnUse">
<stop stop-color="#9BB7F6"/>
<stop offset="1" stop-color="#2563EB"/>
</linearGradient>
<linearGradient id="paint2_linear_1_429" x1="24.2447" y1="2.58639" x2="32.0259" y2="10.3699" gradientUnits="userSpaceOnUse">
<stop stop-color="#9BB7F6"/>
<stop offset="1" stop-color="#2563EB"/>
</linearGradient>
<linearGradient id="paint3_linear_1_429" x1="2.5" y1="2.58698" x2="10.2812" y2="10.3697" gradientUnits="userSpaceOnUse">
<stop stop-color="#9BB7F6"/>
<stop offset="1" stop-color="#2563EB"/>
</linearGradient>
<linearGradient id="paint4_linear_1_429" x1="21.673" y1="20.9484" x2="28.9889" y2="31.1903" gradientUnits="userSpaceOnUse">
<stop stop-color="#9BB7F6"/>
<stop offset="1" stop-color="#2563EB"/>
</linearGradient>
<linearGradient id="paint5_linear_1_429" x1="2.54915" y1="20.9417" x2="9.84486" y2="31.1692" gradientUnits="userSpaceOnUse">
<stop stop-color="#9BB7F6"/>
<stop offset="1" stop-color="#2563EB"/>
</linearGradient>
<linearGradient id="paint6_linear_1_429" x1="23.7821" y1="13.3279" x2="30.4416" y2="19.9745" gradientUnits="userSpaceOnUse">
<stop stop-color="#9BB7F6"/>
<stop offset="1" stop-color="#2563EB"/>
</linearGradient>
<linearGradient id="paint7_linear_1_429" x1="4.6041" y1="13.3279" x2="11.2636" y2="19.9897" gradientUnits="userSpaceOnUse">
<stop stop-color="#9BB7F6"/>
<stop offset="1" stop-color="#2563EB"/>
</linearGradient>
<linearGradient id="paint8_linear_1_429" x1="14.2096" y1="16.8499" x2="20.8623" y2="23.5101" gradientUnits="userSpaceOnUse">
<stop stop-color="#9BB7F6"/>
<stop offset="1" stop-color="#2563EB"/>
</linearGradient>
</defs>
</svg>
