<svg width="30" height="31" viewBox="0 0 30 31" fill="none" xmlns="http://www.w3.org/2000/svg">
<path d="M19.0476 9.82127C19.984 10.447 19.9755 11.3537 19.8563 12.2646C19.767 12.9499 19.4775 13.5671 18.9284 14.0268C18.5368 14.3504 18.3878 14.6483 18.192 15.1208C18.026 15.5252 17.8004 15.9211 17.5237 16.2531C17.0895 16.7724 16.5745 17.2236 16.1147 17.7216C15.6678 18.2069 15.8551 18.7901 15.987 19.3094C16.0935 19.735 16.5276 19.8244 16.9405 19.8542C17.8004 19.9138 18.6858 19.8712 19.5073 20.0713C22.6147 20.8333 24.5472 22.8467 25.2495 25.9412C25.4922 27.0054 25.4283 28.1505 25.4155 29.2572C25.4028 30.2447 24.5514 31.0067 23.4319 30.9982C20.9886 30.9726 18.5453 30.9897 16.102 30.9897C11.4367 30.9897 6.77136 30.9726 2.10606 31.0024C0.816294 31.0109 -0.0605787 30.1426 0.00327121 28.8826C0.0245545 28.4399 0.00327121 27.993 0.00752787 27.5503C0.0500945 24.9324 1.11426 22.8296 3.22131 21.2759C4.60898 20.2501 6.19246 19.8457 7.89938 19.8542C8.19735 19.8542 8.50383 19.8585 8.79754 19.8117C9.26577 19.735 9.51266 19.4498 9.54245 18.9859C9.55948 18.7007 9.56799 18.4112 9.54245 18.126C9.52968 17.9983 9.45306 17.8578 9.35942 17.7642C8.91672 17.3002 8.45275 16.8575 8.01005 16.3978C7.51628 15.887 7.17149 15.2953 7.13744 14.5632C7.12892 14.3631 7.02251 14.3078 6.86927 14.2056C6.54576 13.9843 6.17969 13.7374 5.99665 13.4096C5.44754 12.4136 5.31984 11.3664 5.85193 10.298C5.92429 10.1533 5.91152 9.94471 5.88598 9.77444C5.6774 8.47616 5.59653 7.17362 5.8051 5.87108C6.14989 3.7087 7.46094 2.2061 9.23597 1.09085C10.7939 0.11182 12.5136 -0.267023 14.3397 0.196953C15.7955 0.567282 16.8341 1.46118 17.4513 2.83608C17.5535 3.06169 17.6642 3.18939 17.9111 3.24898C19.1199 3.5512 19.7499 4.35571 19.8265 5.60717C19.9074 6.89694 19.6222 8.12286 19.2264 9.33175C19.1583 9.4935 19.1072 9.651 19.0476 9.82127ZM6.3457 10.9833C6.14564 11.7027 6.30739 12.6903 6.73305 13.2181C6.85224 13.3671 7.06082 13.5288 7.23108 13.5288C7.80148 13.5331 7.84404 13.5373 7.83979 14.1162C7.83553 14.742 7.96749 15.3081 8.42295 15.7636C9.26151 16.6064 10.083 17.4662 10.9514 18.2793C11.1728 18.4878 11.5218 18.6198 11.8283 18.6538C12.3816 18.7177 12.9478 18.6964 13.5097 18.6794C13.9736 18.6666 14.3567 18.441 14.6802 18.1132C15.2677 17.5173 15.8381 16.9044 16.4468 16.334C17.1534 15.6742 17.694 14.9591 17.5705 13.9247C17.5663 13.8864 17.5748 13.8438 17.5833 13.8098C17.6514 13.5629 17.7748 13.4479 18.0685 13.4905C18.2303 13.516 18.4559 13.4479 18.5751 13.3373C19.1157 12.8265 19.3498 11.558 19.0561 10.8812C19.005 10.7662 18.9241 10.6641 18.839 10.5321C18.7539 10.6343 18.6985 10.7024 18.6432 10.7705C18.3793 11.0812 18.06 11.2004 17.6642 11.0685C17.2896 10.945 17.0597 10.6215 17.0555 10.2001C17.0555 10.0298 17.0725 9.85958 17.098 9.69357C17.2342 8.82521 17.0767 8.00367 16.6936 7.22045C16.4084 6.63303 15.8168 6.42445 15.2549 6.7437C13.9609 7.4801 12.5519 7.84618 11.0961 8.05475C10.4236 8.15265 9.75103 8.22076 9.07422 8.30164C8.34633 8.38677 8.03134 8.70176 7.95897 9.4254C7.93769 9.63397 7.89512 9.83829 7.89087 10.0469C7.87384 11.1025 7.03102 11.3154 6.3457 10.9833ZM9.18489 20.4842C9.52542 22.0549 11.0706 23.2681 12.7052 23.2681C14.3908 23.2681 15.8891 22.0932 16.2424 20.4842C15.4677 20.1777 15.1272 19.569 15.1272 18.7943C13.5182 19.7095 11.9304 19.7095 10.3129 18.8241C10.2661 19.5733 9.9894 20.216 9.18489 20.4842ZM13.2117 26.8862C13.2032 26.7585 13.2074 26.6266 13.1904 26.4989C13.1521 26.2307 12.9903 26.0689 12.7222 26.0689C12.4327 26.0689 12.2667 26.235 12.2539 26.5287C12.2454 26.7883 12.2369 27.048 12.2625 27.3034C12.288 27.5673 12.4583 27.7844 12.7137 27.7248C12.8967 27.6822 13.0627 27.4736 13.1776 27.3034C13.2457 27.2055 13.2032 27.0267 13.2117 26.8862Z" fill="url(#paint0_linear_1_461)"/>
<path d="M25.7986 17.7344C23.5 17.7429 21.6101 15.8615 21.5973 13.5544C21.5846 11.2345 23.483 9.32324 25.7901 9.32324C28.0802 9.32324 29.9915 11.2217 30 13.5075C30.0085 15.8274 28.1185 17.7259 25.7986 17.7344ZM25.8029 13.0606C25.3219 13.0606 24.8366 13.0648 24.3556 13.0606C24.0279 13.0563 23.781 13.1542 23.7469 13.516C23.7171 13.8225 23.9513 14.0098 24.3556 14.0141C25.3219 14.0183 26.2839 14.0183 27.2502 14.0141C27.6375 14.0098 27.8291 13.8438 27.8333 13.5373C27.8333 13.2309 27.6503 13.0691 27.2502 13.0648C26.7692 13.0563 26.2882 13.0606 25.8029 13.0606Z" fill="url(#paint1_linear_1_461)"/>
<defs>
<linearGradient id="paint0_linear_1_461" x1="2" y1="0.516709" x2="28.4341" y2="29.1054" gradientUnits="userSpaceOnUse">
<stop stop-color="#FFA5A5"/>
<stop offset="1" stop-color="#FF3B3B"/>
</linearGradient>
<linearGradient id="paint1_linear_1_461" x1="2" y1="0.516709" x2="28.4341" y2="29.1054" gradientUnits="userSpaceOnUse">
<stop stop-color="#FFA5A5"/>
<stop offset="1" stop-color="#FF3B3B"/>
</linearGradient>
</defs>
</svg>
