<svg width="35" height="35" viewBox="0 0 35 35" fill="none" xmlns="http://www.w3.org/2000/svg">
<path d="M32.1758 22.6004C31.686 20.8319 30.6165 19.4308 29.0557 18.4378C28.8105 18.2818 28.7377 18.1108 28.7385 17.8311C28.7475 13.7202 28.7452 9.60868 28.746 5.49787V2.82108C28.6305 2.84958 28.5457 2.86533 28.464 2.89233C24.8542 4.0946 21.2474 5.30511 17.633 6.49388C17.06 6.68214 16.4578 6.88239 15.8653 6.89289C13.217 6.93939 10.5672 6.88314 7.91889 6.93414C5.45285 6.98064 3.40682 8.64492 2.74306 11.0262C2.42506 12.1677 2.49331 13.3355 2.54131 14.4913C2.66206 17.3638 4.53034 19.4458 7.35863 19.9131C7.79814 19.9851 8.25115 19.9746 8.71541 20.0038C8.87441 20.7696 9.03266 21.5249 9.18866 22.2816C9.41967 23.4051 9.61692 24.5377 9.88843 25.6522C10.2162 26.997 11.5407 27.7402 12.875 27.3847C13.9887 27.0877 14.654 26.1712 14.6637 24.8804C14.675 23.4059 14.6667 21.9314 14.6667 20.4569V20.0376C16.124 19.7466 17.3765 20.2656 18.6523 20.7584C18.6216 20.8251 18.6043 20.8716 18.5796 20.9136C17.4958 22.7564 17.2408 24.7334 17.8415 26.7592C18.6876 29.6115 20.6308 31.4175 23.5379 32.007C26.3519 32.577 28.7902 31.7228 30.6803 29.5425C32.4338 27.5205 32.8815 25.1504 32.1758 22.6004ZM12.845 25.0034C12.818 25.3612 12.6312 25.5839 12.2735 25.6357C11.9585 25.6807 11.7057 25.4842 11.6165 25.1039C11.5024 24.6202 11.4132 24.1297 11.3157 23.6414C11.0764 22.4481 10.8379 21.2556 10.5874 20.0001H12.8225C12.833 20.1118 12.851 20.2191 12.8517 20.3264C12.8532 21.8106 12.8532 23.2949 12.8525 24.7792C12.8525 24.8542 12.8502 24.9292 12.845 25.0034ZM19.7136 19.1413C19.0333 18.9388 18.3598 18.7123 17.6923 18.4716C17.603 18.4393 17.5115 18.2811 17.5048 18.1761C17.4815 17.8161 17.4958 17.4531 17.4958 17.0915C17.4958 14.3435 17.5003 11.5955 17.4883 8.84817C17.4875 8.56317 17.57 8.44091 17.8453 8.35016C20.7336 7.3999 23.6166 6.43313 26.5012 5.47162C26.6167 5.43262 26.7352 5.40187 26.8814 5.35837V17.4381C26.5379 17.3818 26.2229 17.3166 25.9042 17.2806C23.7276 17.033 21.8121 17.6406 20.1336 19.0401C20.0323 19.1248 19.8351 19.1773 19.7136 19.1413ZM24.2654 27.7965C23.4186 27.2332 22.5831 26.6775 21.7056 26.0947C22.0596 25.5667 22.3844 25.0822 22.7219 24.5767C23.1134 24.8339 23.4764 25.0724 23.8784 25.3364C24.8909 24.0584 25.8959 22.7894 26.9317 21.4829C27.4027 21.8594 27.8647 22.2291 28.3687 22.6326C27.0059 24.3472 25.6522 26.0512 24.2654 27.7965Z" fill="url(#paint0_linear_1_448)"/>
<path d="M29.7307 10.6593C30.7837 10.717 31.56 11.1483 32.0655 12.0011C32.6595 13.0016 32.6505 14.0268 32.001 14.9974C31.4805 15.7751 30.7327 16.1891 29.7315 16.2139C29.7315 15.6394 29.7232 15.1061 29.7405 14.5736C29.7427 14.5001 29.859 14.4011 29.9445 14.3651C30.4117 14.1663 30.6472 13.8731 30.6487 13.4538C30.6502 13.0143 30.426 12.7338 29.928 12.5156C29.8455 12.4796 29.742 12.3716 29.7397 12.2943C29.7225 11.7731 29.7307 11.251 29.7307 10.6593Z" fill="url(#paint1_linear_1_448)"/>
<defs>
<linearGradient id="paint0_linear_1_448" x1="4.49969" y1="2.82108" x2="31.8536" y2="32.7652" gradientUnits="userSpaceOnUse">
<stop stop-color="#8AEADC"/>
<stop offset="1" stop-color="#00D2B2"/>
</linearGradient>
<linearGradient id="paint1_linear_1_448" x1="29.9135" y1="10.6593" x2="34.2345" y2="12.9691" gradientUnits="userSpaceOnUse">
<stop stop-color="#8AEADC"/>
<stop offset="1" stop-color="#00D2B2"/>
</linearGradient>
</defs>
</svg>
