<svg width="10" height="10" viewBox="0 0 10 10" fill="none" xmlns="http://www.w3.org/2000/svg">
<path d="M8.24606 1.13485C8.41692 0.964108 8.69438 0.964036 8.8652 1.13485C9.03591 1.30568 9.03591 1.58317 8.8652 1.754L5.61911 5.00009L8.8652 8.24618C9.03584 8.41705 9.03598 8.69454 8.8652 8.86532C8.69442 9.03611 8.41693 9.03596 8.24606 8.86532L4.99997 5.61923L1.75387 8.86532C1.58305 9.03603 1.30556 9.03603 1.13473 8.86532C0.963914 8.6945 0.963986 8.41705 1.13473 8.24618L4.38083 5.00009L1.13473 1.754C0.963878 1.58314 0.963878 1.30571 1.13473 1.13485C1.30559 0.964 1.58302 0.964 1.75387 1.13485L4.99997 4.38095L8.24606 1.13485Z" fill="#FF6262"/>
</svg>
