<svg width="37" height="40" viewBox="0 0 37 40" fill="none" xmlns="http://www.w3.org/2000/svg">
<path d="M22.9554 33.7242C22.9554 37.1942 20.146 40.0033 16.6755 40.0033C13.205 40.0033 10.3955 37.1942 10.3955 33.7242C10.3955 33.5865 10.4047 33.458 10.4047 33.3203C14.5822 33.3203 18.7596 33.3203 22.9279 33.3203C22.9554 33.4488 22.9554 33.5865 22.9554 33.7242Z" fill="#749EE8"/>
<path d="M33.1569 31.398C32.7345 32.5364 31.6052 33.2891 30.1913 33.2891C27.7767 33.2891 25.362 33.2891 22.9381 33.2891C18.7607 33.2891 14.5832 33.2891 10.4149 33.2891C8.00946 33.2891 5.59479 33.2891 3.18013 33.2891C1.73867 33.2891 0.655286 32.5823 0.205405 31.4256C-0.262838 30.2138 0.0676869 29.048 1.21534 28.0106C3.74018 25.7157 4.98883 22.8515 5.00719 19.4366C5.01637 17.5914 4.97047 15.7371 5.08064 13.9011C5.46625 7.94329 11.0301 3.02284 16.9887 3.32578C17.2182 3.33496 17.4478 3.38086 17.7416 3.41758C14.2435 11.5051 20.0277 19.9231 28.0796 20.0516C28.603 21.6857 28.9427 23.3381 29.668 24.7885C30.2648 25.9911 31.2472 27.0284 32.1837 28.029C33.1936 29.0939 33.6067 30.2138 33.1569 31.398Z" fill="#3585F9"/>
<path d="M20.005 8.23525C20.0784 3.57184 23.8427 -0.0634207 28.5252 0.000838887C33.0974 0.0650985 36.724 3.88395 36.6506 8.54736C36.5771 13.0455 32.7669 16.7359 28.2589 16.6716C23.6407 16.6074 19.9315 12.816 20.005 8.23525Z" fill="#00D2B2"/>
</svg>
