<svg id="Audinace" viewBox="0 0 38 36" fill="none" xmlns="http://www.w3.org/2000/svg">
    <g opacity="0.7">
        <path
            d="M17.0135 25.9999C15.2109 25.9999 13.4186 25.9999 11.6161 25.9999C11.2064 25.9999 11.0016 25.8053 11.0119 25.4059C11.0221 24.7095 11.0016 24.0028 11.0938 23.3063C11.3191 21.637 12.712 20.2953 14.4019 20.0495C14.6272 20.0188 14.8525 19.9983 15.0778 19.9983C16.4195 19.9983 17.7509 19.988 19.0925 19.9983C21.1921 20.0085 22.9434 21.7189 23.0049 23.8082C23.0254 24.351 23.0151 24.8836 23.0151 25.4264C23.0151 25.8156 22.8205 25.9897 22.4313 25.9897C20.6288 25.9999 18.816 25.9999 17.0135 25.9999Z"
            fill="currentColor" />
        <path
            d="M17.0228 13.0166C18.682 13.0166 20.0236 14.3582 20.0134 16.0174C20.0134 17.6663 18.6615 19.0182 17.0126 19.0182C15.3636 19.0182 14.022 17.6663 14.022 16.0071C14.022 14.348 15.3636 13.0166 17.0228 13.0166Z"
            fill="currentColor" />
        <path
            d="M25.2895 22.9891C24.9208 22.9891 24.5521 22.9789 24.1834 22.9891C23.9888 22.9993 23.9069 22.9277 23.8557 22.7433C23.5997 21.7396 23.0773 20.8998 22.299 20.2136C21.6742 19.6708 20.9471 19.3123 20.1482 19.1177C20.0765 19.0973 20.0048 19.087 19.9434 19.0665C19.7795 19.0256 19.759 18.9436 19.8717 18.8105C20.0458 18.5954 20.2506 18.4008 20.3838 18.1653C20.5681 17.858 20.691 17.52 20.8344 17.1821C20.8856 17.0694 20.9163 16.9772 21.0597 16.9772C21.8586 16.9977 22.6677 16.9567 23.4563 17.0284C25.0745 17.1616 26.5083 18.4725 26.8565 20.0497C27.0306 20.8588 26.9897 21.6679 26.9692 22.4873C26.9589 22.8048 26.7643 22.9789 26.4468 22.9891C26.0679 22.9993 25.6787 22.9891 25.2895 22.9891Z"
            fill="currentColor" />
        <path
            d="M23.9889 12.9931C23.9684 14.4884 22.9238 15.7277 21.4592 15.9735C21.408 15.9837 21.3466 15.9837 21.2953 15.9939C21.0905 16.0349 21.0188 15.953 21.0086 15.7481C20.8447 14.0275 19.9332 12.8805 18.3457 12.2352C18.1204 12.1533 18.0999 12.1226 18.1921 11.8973C18.694 10.6683 19.9434 9.88989 21.2237 10.0128C22.5653 10.1459 23.6919 11.1701 23.9275 12.481C23.9582 12.6551 23.9684 12.819 23.9889 12.9931Z"
            fill="currentColor" />
    </g>
</svg>