<svg width="38" height="36" viewBox="0 0 38 36" fill="none" xmlns="http://www.w3.org/2000/svg">
<path d="M24.89 17.37H21.76C20.59 17.37 19.65 16.43 19.65 15.26V12.12C19.65 10.95 20.59 10.01 21.76 10.01H24.89C26.06 10.01 27 10.95 27 12.12V15.25C27 16.42 26.06 17.37 24.89 17.37Z" fill="#5182EF"/>
<path d="M16.24 17.37H13.11C11.94 17.37 11 16.42 11 15.25V12.12C11 10.95 11.94 10.01 13.11 10.01H16.24C17.41 10.01 18.35 10.95 18.35 12.12V15.25C18.36 16.42 17.41 17.37 16.24 17.37Z" fill="#5182EF"/>
<path d="M24.89 25.99H21.76C20.59 25.99 19.65 25.05 19.65 23.88V20.75C19.65 19.58 20.59 18.64 21.76 18.64H24.89C26.06 18.64 27 19.58 27 20.75V23.88C27 25.04 26.06 25.99 24.89 25.99Z" fill="#5182EF"/>
<path d="M16.24 25.99H13.11C11.94 25.99 11 25.04 11 23.87V20.74C11 19.57 11.94 18.63 13.11 18.63H16.24C17.41 18.63 18.35 19.57 18.35 20.74V23.87C18.36 25.04 17.41 25.99 16.24 25.99Z" fill="#5182EF"/>
</svg>
