<svg id="Delivery" viewBox="0 0 38 36" fill="none" xmlns="http://www.w3.org/2000/svg">
    <g opacity="0.7">
        <path
            d="M23.6238 10.8803H15.6238C13.753 10.8803 12.2474 12.3948 12.2474 14.2567V18.4349C12.9334 17.8023 13.851 17.4193 14.8576 17.4193C16.9868 17.4193 18.7062 19.1476 18.7062 21.2678C18.7062 21.7667 18.6082 22.2478 18.4389 22.6843H18.8665L22.1895 24.9204C22.6706 25.2411 23.3209 24.9026 23.3209 24.3235L23.3298 22.6843H23.6238C25.4857 22.6843 27.0002 21.1698 27.0002 19.3079V14.2567C27.0002 12.3948 25.4857 10.8803 23.6238 10.8803ZM22.6171 17.2322C22.5191 17.3302 22.3766 17.3925 22.2251 17.3925H17.0492C16.7463 17.3925 16.4968 17.1431 16.4968 16.8402C16.4968 16.6888 16.5592 16.5462 16.6572 16.4482C16.7552 16.3502 16.8977 16.2879 17.0492 16.2879H22.2251C22.528 16.2879 22.7775 16.5373 22.7775 16.8402C22.7775 17.0006 22.7151 17.1342 22.6171 17.2322Z"
            fill="currentColor" />
        <path
            d="M14.8484 17.4226C13.8417 17.4226 12.9241 17.8057 12.2381 18.4382C11.4809 19.142 10.9998 20.1487 10.9998 21.2712C10.9998 23.4003 12.7281 25.1197 14.8484 25.1197C16.4787 25.1197 17.8684 24.113 18.4297 22.6787C18.5989 22.2422 18.6969 21.7611 18.6969 21.2623C18.7058 19.142 16.9776 17.4226 14.8484 17.4226ZM14.3049 22.7144C14.2337 22.7856 14.1357 22.8213 14.0377 22.8213C14.0288 22.8213 14.0288 22.8213 14.0199 22.8213C13.913 22.8124 13.815 22.7678 13.7437 22.6876L12.8528 21.6899C12.7281 21.5562 12.7281 21.3603 12.8172 21.2177C12.835 21.191 12.8528 21.1643 12.8796 21.1464C13.0399 21.0039 13.2894 21.0217 13.4319 21.1821L14.0555 21.8859L16.4965 19.6052C16.6658 19.4449 16.9063 19.4538 17.0577 19.6052C17.2003 19.7656 17.2003 20.0061 17.0399 20.1576L14.5277 22.5095L14.3049 22.7144Z"
            fill="currentColor" />
    </g>
</svg>