<svg width="328" height="216" viewBox="0 0 328 216" fill="none" xmlns="http://www.w3.org/2000/svg">
<g filter="url(#filter0_d_913_1602)">
<rect width="328" height="197" fill="#E2E7F0"/>
<path d="M174.32 41.9871C186.909 41.9871 199.532 41.9871 212.121 41.9871C220.626 41.9871 225.993 47.352 225.993 55.869C225.993 74.0093 225.993 92.1497 225.993 110.29C225.993 118.908 220.626 124.239 211.919 124.273C186.808 124.306 161.698 124.306 136.553 124.273C127.981 124.273 122.614 118.975 122.581 110.491C122.547 92.2838 122.547 74.0428 122.581 55.8354C122.614 47.2515 127.947 41.9871 136.52 41.9871C149.109 41.9871 161.731 41.9871 174.32 41.9871ZM215.665 91.1437C215.665 90.0037 215.665 89.4672 215.665 88.9307C215.665 78.0331 215.665 67.1019 215.665 56.2043C215.665 53.0188 214.889 52.2476 211.649 52.2476C186.707 52.2476 161.765 52.2476 136.79 52.2476C133.685 52.2476 132.908 53.0188 132.908 56.0701C132.908 71.0586 132.908 86.0805 132.908 101.069C132.908 101.639 133.043 102.209 133.145 103.148C137.836 98.4535 142.19 94.0945 146.611 89.7354C150.965 85.4434 156.129 85.3764 160.483 89.6684C162.339 91.5126 164.06 93.5244 165.95 95.5698C166.895 94.4968 167.435 93.8933 167.942 93.2897C173.578 86.5835 179.214 79.8437 184.851 73.1375C189.238 67.9066 195.313 67.806 199.802 72.9698C204.46 78.3013 209.05 83.6663 213.674 89.0313C214.18 89.6013 214.72 90.1378 215.665 91.1437Z" fill="#F7F9FC"/>
<path d="M209.354 131.951C207.396 137.886 205.877 143.553 203.616 148.918C201.49 153.948 195.651 156.06 189.846 154.518C181.104 152.204 172.397 149.857 163.689 147.543C146.307 142.916 128.96 138.322 111.578 133.661C103.748 131.549 100.406 125.547 102.735 117.835C106.38 105.696 110.025 93.558 113.67 81.4532C113.873 80.7155 114.177 80.0449 114.885 79.3743C114.885 80.8497 114.885 82.325 114.885 83.8004C114.885 92.9544 114.885 102.108 114.885 111.262C114.885 123.937 123.019 131.951 135.845 131.951C159.268 131.951 182.691 131.951 206.114 131.951C207.025 131.951 207.97 131.951 209.354 131.951Z" fill="#F7F9FC"/>
<path d="M158.728 67.6719C158.728 73.3387 154.205 77.9325 148.535 77.9995C142.797 78.0666 138.106 73.3722 138.14 67.6049C138.173 61.9381 142.797 57.4114 148.467 57.4114C154.138 57.4114 158.694 61.9716 158.728 67.6719Z" fill="#F7F9FC"/>
</g>
<defs>
<filter id="filter0_d_913_1602" x="-15" y="-11" width="358" height="227" filterUnits="userSpaceOnUse" color-interpolation-filters="sRGB">
<feFlood flood-opacity="0" result="BackgroundImageFix"/>
<feColorMatrix in="SourceAlpha" type="matrix" values="0 0 0 0 0 0 0 0 0 0 0 0 0 0 0 0 0 0 127 0" result="hardAlpha"/>
<feOffset dy="4"/>
<feGaussianBlur stdDeviation="7.5"/>
<feComposite in2="hardAlpha" operator="out"/>
<feColorMatrix type="matrix" values="0 0 0 0 0.290196 0 0 0 0 0.329412 0 0 0 0 0.407843 0 0 0 0.08 0"/>
<feBlend mode="normal" in2="BackgroundImageFix" result="effect1_dropShadow_913_1602"/>
<feBlend mode="normal" in="SourceGraphic" in2="effect1_dropShadow_913_1602" result="shape"/>
</filter>
</defs>
</svg>
