<svg width="23" height="25" viewBox="0 0 23 25" fill="none" xmlns="http://www.w3.org/2000/svg">
<path d="M14.0582 20.6537C14.0582 22.7791 12.3376 24.4997 10.2122 24.4997C8.08678 24.4997 6.36621 22.7791 6.36621 20.6537C6.36621 20.5693 6.37183 20.4906 6.37183 20.4062C8.93019 20.4062 11.4886 20.4062 14.0413 20.4062C14.0582 20.485 14.0582 20.5693 14.0582 20.6537Z" fill="#749EE8"/>
<path d="M20.3059 19.2343C20.0473 19.9316 19.3557 20.3926 18.4898 20.3926C17.011 20.3926 15.5322 20.3926 14.0478 20.3926C11.4894 20.3926 8.93105 20.3926 6.37831 20.3926C4.90515 20.3926 3.42636 20.3926 1.94757 20.3926C1.0648 20.3926 0.40131 19.9597 0.125794 19.2512C-0.160967 18.509 0.0414528 17.7948 0.744299 17.1595C2.29056 15.7537 3.05526 13.9994 3.0665 11.9076C3.07213 10.7774 3.04401 9.64159 3.11148 8.517C3.34764 4.86772 6.75504 1.85383 10.4042 2.03938C10.5448 2.04501 10.6854 2.07312 10.8653 2.09561C8.72301 7.04942 12.2654 12.2056 17.1965 12.2844C17.517 13.2852 17.7251 14.2974 18.1693 15.1858C18.5347 15.9224 19.1364 16.5578 19.7099 17.1707C20.3284 17.823 20.5814 18.509 20.3059 19.2343Z" fill="#3585F9"/>
<path d="M12.2526 5.04428C12.2976 2.18783 14.6029 -0.0388467 17.4705 0.000513838C20.2707 0.0398744 22.4917 2.37901 22.4467 5.23546C22.4017 7.9907 20.0683 10.2511 17.3075 10.2118C14.4792 10.1724 12.2076 7.85013 12.2526 5.04428Z" fill="#00D2B2"/>
</svg>
