<svg id="message-icon" viewBox="0 0 38 36" fill="none" xmlns="http://www.w3.org/2000/svg">
    <g opacity="0.7">
        <path
            d="M20.107 22.577C19.9999 22.5859 19.8838 22.5859 19.7767 22.5859C16.0713 22.5859 13.0088 20.3181 12.5981 17.4074C11.607 18.2199 10.9999 19.3359 10.9999 20.5591C10.9999 21.7109 11.5356 22.7645 12.4285 23.5681L12.0713 25.1216L13.7678 24.4609C14.6338 24.8806 15.6428 25.1216 16.732 25.1216C18.6785 25.1216 20.3928 24.3538 21.4285 23.1663C21.6695 22.8984 21.866 22.6038 22.0267 22.3002C21.4106 22.452 20.7678 22.5502 20.107 22.577Z"
            fill="currentColor" />
        <path
            d="M25.259 20.5391C26.3483 19.5123 27.0001 18.1819 27.0001 16.7266C27.0001 13.5033 23.768 10.8783 19.7769 10.8783C16.0894 10.8783 13.0447 13.1105 12.6072 16.0033C12.5715 16.2355 12.5537 16.4855 12.5537 16.7266C12.5537 19.9587 15.7947 22.5748 19.7769 22.5748C19.884 22.5748 20.0001 22.5748 20.1072 22.5658C21.3394 22.5212 22.4822 22.2266 23.4733 21.7533C23.5626 21.7087 23.6697 21.7087 23.759 21.7444L25.643 22.5123L25.1697 20.8873C25.134 20.7623 25.1697 20.6283 25.259 20.5391ZM15.509 18.0391C14.8572 18.0391 14.3305 17.5123 14.3305 16.8605C14.3305 16.2087 14.8572 15.6819 15.509 15.6819C16.1608 15.6819 16.6876 16.2087 16.6876 16.8605C16.6876 17.5123 16.1608 18.0391 15.509 18.0391ZM19.759 18.0391C19.1072 18.0391 18.5805 17.5123 18.5805 16.8605C18.5805 16.6373 18.643 16.4408 18.7501 16.2623C18.9555 15.9141 19.3305 15.6819 19.759 15.6819C20.4108 15.6819 20.9376 16.2087 20.9376 16.8605C20.9376 17.2533 20.7501 17.5926 20.4555 17.8069C20.259 17.9587 20.018 18.0391 19.759 18.0391ZM24.009 18.0391C23.3572 18.0391 22.8305 17.5123 22.8305 16.8605C22.8305 16.2087 23.3572 15.6819 24.009 15.6819C24.6608 15.6819 25.1876 16.2087 25.1876 16.8605C25.1876 17.5123 24.6608 18.0391 24.009 18.0391Z"
            fill="currentColor" />
    </g>
</svg>