<svg width="38" height="36" viewBox="0 0 38 36" fill="none" xmlns="http://www.w3.org/2000/svg">
<g opacity="0.7">
<path d="M18.8888 18.4102C18.5188 18.3302 18.0288 18.2602 17.5888 18.1002C15.7588 17.4602 13.9388 16.7902 12.1188 16.1202C11.1088 15.7502 10.7188 14.7702 11.2088 13.8302C11.3888 13.4802 11.6988 13.2402 12.0688 13.1002C13.9588 12.4102 15.8488 11.7102 17.7488 11.0402C18.6788 10.7202 19.6088 10.7802 20.5288 11.1202C22.3088 11.7702 24.0688 12.4202 25.8488 13.0602C26.4088 13.2602 26.8288 13.6202 26.9588 14.2302C27.1388 15.0802 26.7488 15.8002 25.8988 16.1202C24.8788 16.5002 23.8588 16.8702 22.8388 17.2302C21.8288 17.5902 20.8288 17.9402 19.8188 18.2702C19.5588 18.3502 19.2688 18.3502 18.8888 18.4102Z" fill="white"/>
<path d="M19.0188 25.1702C18.6188 25.0802 18.2388 25.0302 17.8888 24.9102C15.8188 24.1902 13.7388 23.4502 11.6788 22.7102C11.2588 22.5602 11.0288 22.2302 11.0688 21.8802C11.1088 21.5102 11.3788 21.2002 11.7488 21.1602C11.9188 21.1402 12.0988 21.1902 12.2588 21.2402C14.2688 21.9502 16.2888 22.6702 18.2888 23.3902C18.7788 23.5702 19.2388 23.5702 19.7188 23.3902C21.7288 22.6702 23.7388 21.9602 25.7388 21.2302C26.2288 21.0502 26.6088 21.1702 26.8288 21.5302C27.0588 21.9202 26.9388 22.4102 26.5388 22.6102C26.2988 22.7302 26.0388 22.8102 25.7888 22.9102C23.9288 23.5802 22.0688 24.2402 20.1988 24.8902C19.8188 25.0102 19.4088 25.0802 19.0188 25.1702Z" fill="white"/>
<path d="M19.0188 21.8002C18.6188 21.7102 18.2388 21.6602 17.8888 21.5402C15.8188 20.8102 13.7388 20.0802 11.6788 19.3402C11.2588 19.1902 11.0288 18.8602 11.0688 18.5102C11.0988 18.1402 11.3788 17.8202 11.7488 17.7902C11.9088 17.7702 12.0888 17.8102 12.2488 17.8702C14.2688 18.5702 16.2788 19.3002 18.2788 20.0202C18.7688 20.2002 19.2288 20.2002 19.7088 20.0202C21.7188 19.3002 23.7288 18.5902 25.7288 17.8602C26.2188 17.6802 26.5988 17.8002 26.8188 18.1602C27.0488 18.5502 26.9288 19.0402 26.5288 19.2402C26.2888 19.3602 26.0288 19.4402 25.7788 19.5402C23.9188 20.2102 22.0588 20.8702 20.1888 21.5202C19.8188 21.6402 19.4088 21.7002 19.0188 21.8002Z" fill="white"/>
</g>
</svg>
