<svg id="Oragnizatio-icon" viewBox="0 0 38 36" fill="none" xmlns="http://www.w3.org/2000/svg">
    <g opacity="0.7">
        <path
            d="M26.0867 15.09L20.5467 10.66C19.6967 9.98002 18.3067 9.98002 17.4567 10.66L11.9067 15.1C11.2867 15.6 10.8867 16.64 11.0267 17.43L12.0967 23.8C12.2867 24.94 13.3767 25.85 14.5267 25.85H23.4867C24.6267 25.85 25.7267 24.93 25.9167 23.79L26.9767 17.42C27.1067 16.64 26.7067 15.6 26.0867 15.09ZM18.9967 22.99C16.9067 22.99 15.2167 21.29 15.2167 19.21C15.2167 17.12 16.9167 15.43 18.9967 15.43C21.0867 15.43 22.7767 17.13 22.7767 19.21C22.7767 21.3 21.0867 22.99 18.9967 22.99Z"
            fill="white" />
        <path
            d="M18.9967 16.67C17.5967 16.67 16.4667 17.81 16.4667 19.21C16.4667 20.61 17.6067 21.74 18.9967 21.74C20.3967 21.74 21.5267 20.6 21.5267 19.21C21.5367 17.8 20.4067 16.67 18.9967 16.67Z"
            fill="white" />
    </g>
</svg>