<svg id="Setting-icon" viewBox="0 0 38 36" fill="none" xmlns="http://www.w3.org/2000/svg">
    <g opacity="0.7">
        <path
            d="M26.7247 17.0824C25.6878 15.3022 24.6601 13.5312 23.6415 11.751C23.302 11.1361 22.7881 10.8425 22.0815 10.8517C20.0352 10.8609 17.9797 10.8609 15.9242 10.8517C15.2085 10.8425 14.713 11.1361 14.3551 11.7418C13.3365 13.5312 12.3088 15.3022 11.2719 17.0824C10.914 17.6972 10.9048 18.2845 11.2719 18.9085C12.2996 20.6703 13.3273 22.4505 14.3459 24.2307C14.7038 24.8547 15.2085 25.1575 15.9426 25.1483C16.952 25.13 17.9705 25.1483 18.9891 25.1483C20.026 25.1483 21.0538 25.1391 22.0815 25.1483C22.7881 25.1575 23.2928 24.8639 23.6415 24.249C24.6601 22.4688 25.6878 20.6887 26.7247 18.9085C27.0918 18.2936 27.0918 17.6972 26.7247 17.0824ZM19.0258 21.386C17.0621 21.3952 15.6306 19.872 15.6031 18.0092C15.5664 16.1647 17.108 14.614 18.9616 14.5956C20.8244 14.5681 22.366 16.0822 22.4027 17.9725C22.4394 19.8169 20.9253 21.3769 19.0258 21.386Z"
            fill="currentColor" />
        <path
            d="M18.9992 15.926C17.8522 15.926 16.9346 16.8528 16.9438 17.9999C16.9438 19.1377 17.8522 20.0462 18.9901 20.0554C20.1279 20.0645 21.0639 19.1377 21.0639 17.9999C21.0639 16.8528 20.1371 15.926 18.9992 15.926Z"
            fill="currentColor" />
    </g>
</svg>