<svg width="13" height="15" viewBox="0 0 13 15" fill="none" xmlns="http://www.w3.org/2000/svg">
<path d="M7.15287 11.8743C6.70835 11.8743 6.29615 11.8743 5.8597 11.8743C5.8597 11.9443 5.85162 12.0144 5.85162 12.0845C5.85162 12.7384 5.8597 13.3846 5.85162 14.0385C5.84353 14.7003 5.21311 15.1362 4.58269 14.9494C4.19474 14.8326 3.91185 14.4667 3.90377 14.0463C3.89569 13.4001 3.90377 12.7618 3.90377 12.1156C3.90377 12.0455 3.90377 11.9755 3.90377 11.8743C3.69363 11.8743 3.49965 11.8743 3.30568 11.8743C2.85307 11.8665 2.6106 11.6407 2.6106 11.2125C2.6106 9.17282 2.6106 7.1409 2.6106 5.1012C2.6106 5.07006 2.61868 5.03892 2.61868 4.99221C5.20503 4.99221 7.79138 4.99221 10.3939 4.99221C10.3939 5.06227 10.402 5.13234 10.402 5.19462C10.402 7.16426 10.402 9.14168 10.402 11.1113C10.402 11.6718 10.1918 11.8743 9.60182 11.8743C9.44826 11.8743 9.29469 11.8743 9.1088 11.8743C9.1088 11.9521 9.10072 12.0222 9.10072 12.0922C9.10072 12.754 9.1088 13.4235 9.09264 14.0852C9.07647 14.7236 8.4218 15.1518 7.80754 14.9494C7.41959 14.8248 7.15287 14.4589 7.15287 14.0307C7.14479 13.3924 7.15287 12.754 7.15287 12.1156C7.15287 12.0377 7.15287 11.9677 7.15287 11.8743Z" fill="#1A1B2D"/>
<path d="M8.77742 1.34099C9.83621 2.09614 10.3535 3.09264 10.402 4.33826C7.79946 4.33826 5.21311 4.33826 2.6106 4.33826C2.60251 3.7388 2.748 3.17828 3.03088 2.64889C3.30568 2.12728 3.70171 1.69132 4.22707 1.3332C3.99268 1.11522 3.76637 0.897235 3.54007 0.687037C3.48349 0.640326 3.435 0.58583 3.3865 0.531334C3.25718 0.383417 3.25718 0.212145 3.3865 0.0953677C3.51582 -0.0291942 3.68555 -0.0369793 3.83911 0.103153C4.05734 0.305566 4.27556 0.515764 4.4857 0.718177C4.74434 0.967301 4.73625 0.951731 5.07571 0.834954C6.086 0.492409 7.08821 0.507979 8.08234 0.90502C8.21974 0.959516 8.29248 0.943946 8.38947 0.850524C8.62386 0.609186 8.87441 0.375632 9.11688 0.142078C9.29469 -0.0291942 9.47251 -0.0369793 9.61799 0.103153C9.75539 0.2355 9.74731 0.414558 9.56949 0.58583C9.31894 0.827169 9.05222 1.07629 8.77742 1.34099ZM5.35859 2.78902C5.35859 2.53211 5.14037 2.31413 4.87365 2.31413C4.61502 2.31413 4.38871 2.53211 4.38871 2.78902C4.38871 3.04593 4.59885 3.24056 4.86557 3.24834C5.14037 3.24834 5.35051 3.05371 5.35859 2.78902ZM8.6077 2.7968C8.6077 2.5399 8.38947 2.32191 8.13084 2.32191C7.86412 2.32191 7.6459 2.5399 7.6459 2.7968C7.6459 3.05371 7.84796 3.24834 8.11467 3.25613C8.38947 3.24834 8.6077 3.05371 8.6077 2.7968Z" fill="#1A1B2D"/>
<path d="M1.94784 8.11404C1.94784 8.8147 1.94784 9.51536 1.94784 10.2238C1.94784 10.7532 1.61647 11.1425 1.11536 11.2203C0.598093 11.3059 0.0727411 10.9245 0.00808234 10.4184C0.00808234 10.3562 0 10.2939 0 10.2238C0 8.8147 0 7.40559 0 5.9887C0 5.48267 0.323294 5.07784 0.79207 4.99221C1.3255 4.891 1.8751 5.26469 1.93168 5.79408C1.96401 6.15219 1.94784 6.51809 1.95593 6.88399C1.95593 7.2966 1.94784 7.70921 1.94784 8.11404Z" fill="#1A1B2D"/>
<path d="M12.9964 8.12183C12.9964 8.83027 13.0045 9.53872 12.9964 10.2472C12.9883 10.7532 12.665 11.1347 12.1801 11.2125C11.679 11.2982 11.1617 10.9556 11.0728 10.4651C11.0566 10.3951 11.0486 10.325 11.0486 10.2549C11.0486 8.82249 11.0405 7.39781 11.0486 5.96535C11.0486 5.4671 11.4042 5.06227 11.8649 4.99221C12.4549 4.90657 12.9802 5.33475 12.9883 5.94199C13.0045 6.66601 12.9964 7.39781 12.9964 8.12183Z" fill="#1A1B2D"/>
</svg>
