<svg width="15" height="15" viewBox="0 0 15 15" fill="none" xmlns="http://www.w3.org/2000/svg">
<path d="M13.1906 5.09313C10.8385 6.67626 11.1461 9.88774 13.6338 11.0547C13.3443 11.6427 13.091 12.2579 12.7473 12.8188C12.4307 13.3435 12.0598 13.841 11.6436 14.2933C10.9742 15.0352 10.2324 15.1618 9.3006 14.809C8.9116 14.6642 8.51356 14.5105 8.10647 14.4381C7.54559 14.3386 7.00281 14.4652 6.47811 14.6823C5.1121 15.2432 4.50599 15.0985 3.56517 13.9496C2.07251 12.1222 1.26738 10.0506 1.37593 7.67136C1.43926 6.40487 1.87349 5.27406 2.90478 4.45989C3.89988 3.67285 5.01259 3.42859 6.23386 3.88996C7.75366 4.45989 7.43703 4.45084 8.87541 3.88996C10.5128 3.25671 12.1502 3.85378 12.9373 4.78556C13.0187 4.87602 13.1001 4.97553 13.1906 5.09313Z" fill="#1A1B2D"/>
<path d="M10.4404 0C10.7118 1.47457 9.26441 3.56429 7.50036 3.42859C7.09327 2.0264 8.80304 0.0361857 10.4404 0Z" fill="#1A1B2D"/>
</svg>
