<svg width="15" height="14" viewBox="0 0 15 14" fill="none" xmlns="http://www.w3.org/2000/svg">
<path d="M14.9918 6.49351C12.4904 6.49351 10.0137 6.49351 7.5205 6.49351C7.5205 4.64286 7.5205 2.80032 7.5205 0.925325C10.0055 0.616883 12.4904 0.308442 14.9918 0C14.9918 2.16721 14.9918 4.31006 14.9918 6.49351Z" fill="white"/>
<path d="M15 7.4513C15 9.61039 15 11.7532 15 13.9286C12.4986 13.6201 10.0219 13.3117 7.5205 13.0032C7.5205 11.1526 7.5205 9.31007 7.5205 7.4513C9.99727 7.4513 12.4822 7.4513 15 7.4513Z" fill="white"/>
<path d="M6.54456 1.04708C6.54456 2.86526 6.54456 4.65909 6.54456 6.47727C4.37944 6.47727 2.20612 6.47727 0.0082012 6.47727C0.0082012 4.9513 0.0082012 3.41721 0.0082012 1.85065C2.18152 1.58279 4.35484 1.31494 6.54456 1.04708Z" fill="white"/>
<path d="M0 12.0698C0 10.5114 0 8.98539 0 7.44318C2.18152 7.44318 4.35484 7.44318 6.54456 7.44318C6.54456 9.25325 6.54456 11.0552 6.54456 12.8815C4.36304 12.6136 2.19792 12.3458 0 12.0698Z" fill="white"/>
</svg>
